<svg width="395" height="111" viewBox="0 0 395 111" fill="none" xmlns="http://www.w3.org/2000/svg">
<rect width="395" height="111" fill="url(#paint0_radial_8_25)"/>
<path d="M146.584 72.1624C145.258 72.876 143.922 73.2272 142.551 73.2272V73.2045C139.515 73.2045 137.998 71.1769 137.998 67.0878V50.6178C137.998 49.6776 138.745 48.9187 139.697 48.9187H146.923C147.49 48.9187 147.943 48.4656 147.943 47.8993C147.943 47.3329 147.49 46.8798 146.923 46.8798H139.697C138.756 46.8798 137.998 46.1322 137.998 45.1807V40.7517C137.998 40.1287 137.499 39.6303 136.876 39.6303C136.253 39.6303 135.755 40.1287 135.755 40.7517V45.1807C135.755 46.1209 135.007 46.8798 134.056 46.8798H132.492C131.926 46.8798 131.473 47.3329 131.473 47.8993C131.473 48.4656 131.926 48.9187 132.492 48.9187H134.056C134.996 48.9187 135.755 49.6663 135.755 50.6178V67.3483C135.755 70.0442 136.321 72.0718 137.454 73.4424C138.587 74.813 140.184 75.4926 142.291 75.4926C144.137 75.4926 145.961 74.9602 147.762 73.8955C148.203 73.6349 148.351 73.0799 148.136 72.6155C147.864 72.0378 147.139 71.8452 146.584 72.1511V72.1624Z" fill="#1E1E1E"/>
<path d="M199.754 33.7515C199.108 33.7515 198.576 34.2838 198.576 34.9295V74.2693C198.576 74.9149 199.097 75.4473 199.754 75.4473C200.411 75.4473 200.932 74.9263 200.932 74.2693V34.9295C200.932 34.2838 200.411 33.7515 199.754 33.7515Z" fill="#1E1E1E"/>
<path d="M234.438 48.7829L234.404 48.7602C232.535 46.9932 229.919 46.121 226.521 46.121C224.414 46.121 222.488 46.4608 220.744 47.1518C219.226 47.7521 217.663 48.6017 216.031 49.7117C215.578 50.0289 215.454 50.6406 215.748 51.1163C216.077 51.6374 216.779 51.7733 217.289 51.4222C218.614 50.5046 219.917 49.7797 221.197 49.2473C222.783 48.5903 224.436 48.2732 226.203 48.2732C229.08 48.2732 231.267 48.9641 232.717 50.3461C234.166 51.7167 234.914 53.6763 234.959 56.1796V57.3464C234.959 58.2865 234.212 59.0455 233.26 59.0455H224.561C221.197 59.0455 218.535 59.7364 216.575 61.1523C214.616 62.5682 213.653 64.4826 213.653 66.9179C213.653 68.5717 214.049 70.0443 214.853 71.3243C215.658 72.6043 216.79 73.635 218.263 74.394C219.735 75.1416 221.412 75.5267 223.326 75.5267C225.909 75.5267 228.197 75.051 230.213 74.0995C230.961 73.737 231.663 73.3066 232.297 72.8195C233.408 71.9359 235.05 72.6722 235.061 74.0995V74.3373C235.061 74.9717 235.582 75.4927 236.217 75.4927C236.851 75.4927 237.372 74.9717 237.372 74.326L237.27 56.0437C237.236 52.974 236.296 50.55 234.427 48.7942L234.438 48.7829ZM234.982 65.5587V65.5813C234.982 65.7852 234.948 66.0118 234.869 66.227C234.008 68.5831 232.626 70.3501 230.768 71.5395C228.809 72.7855 226.441 73.3858 223.632 73.3858C221.276 73.3858 219.396 72.7855 217.98 71.5735C216.564 70.3614 215.873 68.8096 215.873 66.85C215.873 64.8904 216.62 63.5537 218.15 62.5796C219.679 61.6054 221.854 61.107 224.753 61.107H233.283C234.223 61.107 234.982 61.8546 234.982 62.8061V65.57V65.5587Z" fill="#1E1E1E"/>
<path d="M263.425 46.2004C261.329 46.4156 259.494 47.0499 257.92 48.1147C257.444 48.4318 257.002 48.7943 256.583 49.2021C255.507 50.2216 253.74 49.4626 253.74 47.9788V47.3444C253.74 46.6988 253.208 46.1664 252.562 46.1664C251.916 46.1664 251.384 46.6874 251.384 47.3444V74.2581C251.384 74.9038 251.916 75.4362 252.562 75.4362C253.208 75.4362 253.74 74.9151 253.74 74.2581V59.5893C254 56.1458 255.099 53.4385 257.002 51.4789C258.679 49.7685 260.819 48.7943 263.459 48.5678C264.116 48.5111 264.648 47.9901 264.648 47.3331C264.648 46.6761 264.093 46.1211 263.425 46.189V46.2004Z" fill="#1E1E1E"/>
<path d="M291.018 48.7829L290.984 48.7602C289.115 46.9932 286.51 46.121 283.1 46.121C280.993 46.121 279.068 46.4608 277.323 47.1518C275.806 47.7521 274.242 48.6017 272.611 49.7117C272.158 50.0289 272.034 50.6406 272.328 51.1163C272.657 51.6374 273.359 51.7733 273.869 51.4222C275.194 50.5046 276.496 49.7797 277.776 49.2473C279.362 48.5903 281.016 48.2732 282.783 48.2732C285.66 48.2732 287.846 48.9641 289.296 50.3461C290.746 51.7167 291.494 53.6763 291.539 56.1796V57.3464C291.539 58.2865 290.792 59.0455 289.84 59.0455H281.141C277.776 59.0455 275.115 59.7364 273.155 61.1523C271.195 62.5682 270.232 64.4826 270.232 66.9179C270.232 68.5717 270.629 70.0443 271.433 71.3243C272.237 72.6043 273.37 73.635 274.843 74.394C276.315 75.1416 277.992 75.5267 279.906 75.5267C282.489 75.5267 284.777 75.051 286.793 74.0995C287.541 73.737 288.243 73.3066 288.877 72.8195C289.987 71.9359 291.63 72.6722 291.641 74.0995V74.3373C291.641 74.9717 292.162 75.4927 292.796 75.4927C293.431 75.4927 293.952 74.9717 293.952 74.326L293.85 56.0437C293.816 52.974 292.876 50.55 291.007 48.7942L291.018 48.7829ZM291.562 65.5587V65.5813C291.562 65.7852 291.528 66.0118 291.449 66.227C290.588 68.5831 289.206 70.3501 287.348 71.5395C285.388 72.7855 283.021 73.3858 280.212 73.3858C277.856 73.3858 275.975 72.7855 274.56 71.5735C273.144 70.3614 272.453 68.8096 272.453 66.85C272.453 64.8904 273.2 63.5537 274.729 62.5796C276.259 61.6054 278.433 61.107 281.333 61.107H289.863C290.803 61.107 291.562 61.8546 291.562 62.8061V65.57V65.5587Z" fill="#1E1E1E"/>
<path d="M320.107 61.1071V61.0731C318.861 60.5068 317.23 59.9064 315.157 59.2608C313.424 58.7284 312.064 58.264 311.056 57.8448C310.037 57.4257 309.187 56.848 308.53 56.0891C307.851 55.3415 307.511 54.39 307.511 53.2799C307.511 51.5808 308.19 50.3235 309.538 49.4966C310.898 48.6471 312.642 48.2393 314.828 48.2393C317.184 48.2393 319.325 48.7377 321.251 49.7345C321.806 50.0177 322.497 49.8364 322.791 49.2927C323.063 48.7943 322.893 48.1713 322.395 47.9108C320.118 46.6988 317.603 46.1097 314.885 46.1097C312.166 46.1097 309.821 46.7327 307.998 47.9787C306.174 49.2248 305.268 51.0485 305.268 53.4952C305.268 55.1489 305.698 56.4856 306.571 57.505C307.431 58.5358 308.451 59.3287 309.663 59.8611C310.864 60.4048 312.472 60.9938 314.5 61.6282C316.267 62.1606 317.66 62.6476 318.713 63.1007C319.767 63.5538 320.639 64.1542 321.33 64.9244C322.021 65.6947 322.361 66.6802 322.361 67.8809C322.361 69.6932 321.625 71.0412 320.141 71.9813C318.657 72.9215 316.788 73.3973 314.545 73.3973C312.699 73.3973 310.932 73.0801 309.232 72.4344C307.941 71.9474 306.774 71.313 305.744 70.5201C305.223 70.1237 304.452 70.2256 304.112 70.792C303.863 71.1998 303.943 71.7321 304.305 72.0493C305.528 73.0688 306.922 73.873 308.53 74.4734C310.41 75.187 312.37 75.5494 314.42 75.5494C317.297 75.5494 319.733 74.8925 321.67 73.5558C323.607 72.2192 324.592 70.2596 324.592 67.6883C324.592 65.9552 324.162 64.5846 323.278 63.5312C322.395 62.4777 321.341 61.6622 320.095 61.1184L320.107 61.1071Z" fill="#1E1E1E"/>
<path d="M356.909 56.0439L356.875 56.0213C356.841 52.9516 355.901 50.5275 354.032 48.7718C352.163 47.016 349.558 46.1325 346.148 46.1325C344.064 46.1325 342.116 46.4723 340.371 47.1633C338.865 47.7636 337.29 48.6132 335.659 49.7233C335.206 50.0404 335.082 50.6521 335.376 51.1279C335.705 51.6489 336.407 51.7848 336.917 51.4337C338.242 50.5162 339.545 49.7912 340.825 49.2588C342.388 48.6019 344.064 48.2847 345.831 48.2847C348.708 48.2847 350.895 48.9757 352.344 50.3576C353.817 51.7509 354.542 53.6878 354.587 56.1912V57.3579C354.587 58.2981 353.84 59.057 352.888 59.057H344.189C340.825 59.057 338.151 59.748 336.203 61.1639C334.243 62.5798 333.281 64.4941 333.281 66.9295C333.281 68.5833 333.677 70.0558 334.481 71.3358C335.285 72.6385 336.418 73.6466 337.891 74.4055C339.363 75.1531 341.04 75.5382 342.954 75.5382C345.537 75.5382 347.825 75.0625 349.841 74.111C350.589 73.7485 351.291 73.3181 351.925 72.831C353.035 71.9475 354.678 72.6838 354.689 74.111V74.3489C354.689 74.9832 355.21 75.5043 355.845 75.5043C356.479 75.5043 357 74.9832 357 74.3375L356.898 56.0552L356.909 56.0439ZM354.633 65.5702V65.5929C354.633 65.7967 354.599 66.0233 354.519 66.2272C353.658 68.5833 352.276 70.3503 350.419 71.5397C348.482 72.7857 346.092 73.3861 343.283 73.3861C340.926 73.3861 339.046 72.7857 337.63 71.5737C336.214 70.3617 335.523 68.8098 335.523 66.8502C335.523 64.8906 336.271 63.5539 337.8 62.5798C339.329 61.6056 341.504 61.1072 344.404 61.1072H352.933C353.874 61.1072 354.633 61.8548 354.633 62.8063V65.5702Z" fill="#1E1E1E"/>
<path d="M184.235 56.1796C183.601 56.1796 183.069 56.6893 183.069 57.3463V65.5699C183.069 70.2708 179.229 74.1107 174.528 74.1107C169.827 74.1107 165.987 70.2708 165.987 65.5699V57.3463C165.987 56.7006 165.455 56.1796 164.82 56.1796C164.186 56.1796 163.654 56.6893 163.654 57.3463V65.5699C163.654 71.5734 168.536 76.4555 174.539 76.4668C180.531 76.4668 185.425 71.5621 185.425 65.5699V57.3463C185.425 56.7006 184.892 56.1796 184.258 56.1796H184.235Z" fill="#1E1E1E"/>
<path d="M164.82 51.1729C165.466 51.1729 165.987 50.6632 165.987 50.0062V46.9931C165.987 46.3475 165.455 45.8264 164.82 45.8264C164.186 45.8264 163.654 46.3361 163.654 46.9931V50.0062C163.654 50.6519 164.186 51.1729 164.82 51.1729Z" fill="#1E1E1E"/>
<path d="M184.269 45.8264C183.624 45.8264 183.103 46.3361 183.103 46.9931V50.0062C183.103 50.6519 183.635 51.1729 184.269 51.1729C184.904 51.1729 185.436 50.6632 185.436 50.0062V46.9931C185.436 46.3475 184.904 45.8264 184.269 45.8264Z" fill="#1E1E1E"/>
<path d="M66.205 23.1492C46.9599 23.1492 38 33.423 38 55.5C38 77.5769 46.9599 87.8508 66.205 87.8508C85.4501 87.8508 94.41 77.5769 94.41 55.5C94.41 33.423 85.4501 23.1492 66.205 23.1492ZM92.0653 55.5C92.0653 75.9685 83.853 85.4947 66.205 85.4947C48.5571 85.4947 40.3561 75.9571 40.3561 55.5C40.3561 35.0429 48.5684 25.5053 66.205 25.5053C83.8416 25.5053 92.0653 35.0315 92.0653 55.5Z" fill="#1E1E1E"/>
<path d="M75.9239 54.356C75.2669 54.356 74.7459 54.8771 74.7459 55.5341V63.3273C74.7459 68.0394 70.9172 71.8681 66.2051 71.8681C61.4929 71.8681 57.6756 68.0394 57.6756 63.3273V55.5341C57.6756 54.8771 57.1545 54.356 56.4976 54.356C55.8406 54.356 55.3195 54.8771 55.3195 55.5341V63.3273C55.3195 69.3307 60.2016 74.2128 66.2051 74.2128C72.2085 74.2128 77.0906 69.3307 77.0906 63.3273V55.5341C77.0906 54.8771 76.5696 54.356 75.9126 54.356H75.9239Z" fill="#1E1E1E"/>
<path d="M56.4976 48.7716C57.1545 48.7716 57.6756 48.2505 57.6756 47.5935V42.7568C57.6756 42.0998 57.1545 41.5787 56.4976 41.5787C55.8406 41.5787 55.3195 42.0998 55.3195 42.7568V47.5935C55.3195 48.2505 55.8406 48.7716 56.4976 48.7716Z" fill="#1E1E1E"/>
<path d="M75.9352 41.5787C75.2782 41.5787 74.7571 42.0998 74.7571 42.7568V47.5935C74.7571 48.2505 75.2782 48.7716 75.9352 48.7716C76.5922 48.7716 77.1132 48.2505 77.1132 47.5935V42.7568C77.1132 42.0998 76.5922 41.5787 75.9352 41.5787Z" fill="#1E1E1E"/>
<defs>
<radialGradient id="paint0_radial_8_25" cx="0" cy="0" r="1" gradientTransform="matrix(214.5 437.5 -1539.57 367.037 231.5 111)" gradientUnits="userSpaceOnUse">
<stop offset="0.192637" stop-color="white" stop-opacity="0"/>
<stop offset="0.35372" stop-color="white"/>
</radialGradient>
</defs>
</svg>
