<?xml version="1.0" encoding="UTF-8"?>
<svg id="Layer_1" data-name="Layer 1" xmlns="http://www.w3.org/2000/svg" viewBox="0 0 291.55 66.16">
  <defs>
    <style>
      .cls-1 {
        fill: #090b0e;
      }
    </style>
  </defs>
  <path class="cls-1" d="M100.82,47.79c-1.17,.63-2.35,.94-3.56,.94v-.02c-2.68,0-4.02-1.79-4.02-5.4v-14.54c0-.83,.66-1.5,1.5-1.5h6.38c.5,0,.9-.4,.9-.9s-.4-.9-.9-.9h-6.38c-.83,0-1.5-.66-1.5-1.5v-3.91c0-.55-.44-.99-.99-.99s-.99,.44-.99,.99v3.91c0,.83-.66,1.5-1.5,1.5h-1.38c-.5,0-.9,.4-.9,.9s.4,.9,.9,.9h1.38c.83,0,1.5,.66,1.5,1.5v14.77c0,2.38,.5,4.17,1.5,5.38s2.41,1.81,4.27,1.81c1.63,0,3.24-.47,4.83-1.41,.39-.23,.52-.72,.33-1.13-.24-.51-.88-.68-1.37-.41Z"/>
  <path class="cls-1" d="M147.76,13.88c-.57,0-1.04,.47-1.04,1.04V49.66c0,.57,.46,1.04,1.04,1.04s1.04-.46,1.04-1.04V14.92c0-.57-.46-1.04-1.04-1.04Z"/>
  <path class="cls-1" d="M178.38,27.15l-.03-.02c-1.65-1.56-3.96-2.33-6.96-2.33-1.86,0-3.56,.3-5.1,.91-1.34,.53-2.72,1.28-4.16,2.26-.4,.28-.51,.82-.25,1.24,.29,.46,.91,.58,1.36,.27,1.17-.81,2.32-1.45,3.45-1.92,1.4-.58,2.86-.86,4.42-.86,2.54,0,4.47,.61,5.75,1.83,1.28,1.21,1.94,2.94,1.98,5.15v1.03c0,.83-.66,1.5-1.5,1.5h-7.68c-2.97,0-5.32,.61-7.05,1.86-1.73,1.25-2.58,2.94-2.58,5.09,0,1.46,.35,2.76,1.06,3.89s1.71,2.04,3.01,2.71c1.3,.66,2.78,1,4.47,1,2.28,0,4.3-.42,6.08-1.26,.66-.32,1.28-.7,1.84-1.13,.98-.78,2.43-.13,2.44,1.13v.21c0,.56,.46,1.02,1.02,1.02s1.02-.46,1.02-1.03l-.09-16.14c-.03-2.71-.86-4.85-2.51-6.4Zm.48,14.81v.02c0,.18-.03,.38-.1,.57-.76,2.08-1.98,3.64-3.62,4.69-1.73,1.1-3.82,1.63-6.3,1.63-2.08,0-3.74-.53-4.99-1.6s-1.86-2.44-1.86-4.17,.66-2.91,2.01-3.77c1.35-.86,3.27-1.3,5.83-1.3h7.53c.83,0,1.5,.66,1.5,1.5v2.44Z"/>
  <path class="cls-1" d="M203.97,24.87c-1.85,.19-3.47,.75-4.86,1.69-.42,.28-.81,.6-1.18,.96-.95,.9-2.51,.23-2.51-1.08v-.56c0-.57-.47-1.04-1.04-1.04s-1.04,.46-1.04,1.04v23.76c0,.57,.47,1.04,1.04,1.04s1.04-.46,1.04-1.04v-12.95c.23-3.04,1.2-5.43,2.88-7.16,1.48-1.51,3.37-2.37,5.7-2.57,.58-.05,1.05-.51,1.05-1.09s-.49-1.07-1.08-1.01Z"/>
  <path class="cls-1" d="M228.33,27.15l-.03-.02c-1.65-1.56-3.95-2.33-6.96-2.33-1.86,0-3.56,.3-5.1,.91-1.34,.53-2.72,1.28-4.16,2.26-.4,.28-.51,.82-.25,1.24,.29,.46,.91,.58,1.36,.27,1.17-.81,2.32-1.45,3.45-1.92,1.4-.58,2.86-.86,4.42-.86,2.54,0,4.47,.61,5.75,1.83,1.28,1.21,1.94,2.94,1.98,5.15v1.03c0,.83-.66,1.5-1.5,1.5h-7.68c-2.97,0-5.32,.61-7.05,1.86s-2.58,2.94-2.58,5.09c0,1.46,.35,2.76,1.06,3.89,.71,1.13,1.71,2.04,3.01,2.71,1.3,.66,2.78,1,4.47,1,2.28,0,4.3-.42,6.08-1.26,.66-.32,1.28-.7,1.84-1.13,.98-.78,2.43-.13,2.44,1.13v.21c0,.56,.46,1.02,1.02,1.02s1.02-.46,1.02-1.03l-.09-16.14c-.03-2.71-.86-4.85-2.51-6.4Zm.48,14.81v.02c0,.18-.03,.38-.1,.57-.76,2.08-1.98,3.64-3.62,4.69-1.73,1.1-3.82,1.63-6.3,1.63-2.08,0-3.74-.53-4.99-1.6s-1.86-2.44-1.86-4.17,.66-2.91,2.01-3.77c1.35-.86,3.27-1.3,5.83-1.3h7.53c.83,0,1.5,.66,1.5,1.5v2.44Z"/>
  <path class="cls-1" d="M254.01,38.03v-.03c-1.1-.5-2.54-1.03-4.37-1.6-1.53-.47-2.73-.88-3.62-1.25-.9-.37-1.65-.88-2.23-1.55-.6-.66-.9-1.5-.9-2.48,0-1.5,.6-2.61,1.79-3.34,1.2-.75,2.74-1.11,4.67-1.11,2.08,0,3.97,.44,5.67,1.32,.49,.25,1.1,.09,1.36-.39,.24-.44,.09-.99-.35-1.22-2.01-1.07-4.23-1.59-6.63-1.59s-4.47,.55-6.08,1.65c-1.61,1.1-2.41,2.71-2.41,4.87,0,1.46,.38,2.64,1.15,3.54,.76,.91,1.66,1.61,2.73,2.08,1.06,.48,2.48,1,4.27,1.56,1.56,.47,2.79,.9,3.72,1.3,.93,.4,1.7,.93,2.31,1.61,.61,.68,.91,1.55,.91,2.61,0,1.6-.65,2.79-1.96,3.62-1.31,.83-2.96,1.25-4.94,1.25-1.63,0-3.19-.28-4.69-.85-1.14-.43-2.17-.99-3.08-1.69-.46-.35-1.14-.26-1.44,.24-.22,.36-.15,.83,.17,1.11,1.08,.9,2.31,1.61,3.73,2.14,1.66,.63,3.39,.95,5.2,.95,2.54,0,4.69-.58,6.4-1.76,1.71-1.18,2.58-2.91,2.58-5.18,0-1.53-.38-2.74-1.16-3.67-.78-.93-1.71-1.65-2.81-2.13Z"/>
  <path class="cls-1" d="M286.5,33.56l-.03-.02c-.03-2.71-.86-4.85-2.51-6.4s-3.95-2.33-6.96-2.33c-1.84,0-3.56,.3-5.1,.91-1.33,.53-2.72,1.28-4.16,2.26-.4,.28-.51,.82-.25,1.24,.29,.46,.91,.58,1.36,.27,1.17-.81,2.32-1.45,3.45-1.92,1.38-.58,2.86-.86,4.42-.86,2.54,0,4.47,.61,5.75,1.83,1.3,1.23,1.94,2.94,1.98,5.15v1.03c0,.83-.66,1.5-1.5,1.5h-7.68c-2.97,0-5.33,.61-7.05,1.86-1.73,1.25-2.58,2.94-2.58,5.09,0,1.46,.35,2.76,1.06,3.89,.71,1.15,1.71,2.04,3.01,2.71,1.3,.66,2.78,1,4.47,1,2.28,0,4.3-.42,6.08-1.26,.66-.32,1.28-.7,1.84-1.13,.98-.78,2.43-.13,2.44,1.13v.21c0,.56,.46,1.02,1.02,1.02s1.02-.46,1.02-1.03l-.09-16.14Zm-2.01,8.41v.02c0,.18-.03,.38-.1,.56-.76,2.08-1.98,3.64-3.62,4.69-1.71,1.1-3.82,1.63-6.3,1.63-2.08,0-3.74-.53-4.99-1.6s-1.86-2.44-1.86-4.17,.66-2.91,2.01-3.77c1.35-.86,3.27-1.3,5.83-1.3h7.53c.83,0,1.5,.66,1.5,1.5v2.44Z"/>
  <path class="cls-1" d="M134.06,33.68c-.56,0-1.03,.45-1.03,1.03v7.26c0,4.15-3.39,7.54-7.54,7.54s-7.54-3.39-7.54-7.54v-7.26c0-.57-.47-1.03-1.03-1.03s-1.03,.45-1.03,1.03v7.26c0,5.3,4.31,9.61,9.61,9.62,5.29,0,9.61-4.33,9.61-9.62v-7.26c0-.57-.47-1.03-1.03-1.03Z"/>
  <path class="cls-1" d="M125.5,51.59s-.01,0-.02,0-.01,0-.02,0h.03Z"/>
  <path class="cls-1" d="M116.92,29.26c.57,0,1.03-.45,1.03-1.03v-2.66c0-.57-.47-1.03-1.03-1.03s-1.03,.45-1.03,1.03v2.66c0,.57,.47,1.03,1.03,1.03Z"/>
  <path class="cls-1" d="M134.09,24.54c-.57,0-1.03,.45-1.03,1.03v2.66c0,.57,.47,1.03,1.03,1.03s1.03-.45,1.03-1.03v-2.66c0-.57-.47-1.03-1.03-1.03Z"/>
  <path class="cls-1" d="M29.86,4.52C12.87,4.52,4.96,13.6,4.96,33.08s7.91,28.56,24.9,28.56,24.9-9.07,24.9-28.56S46.85,4.52,29.86,4.52Zm22.83,28.56c0,18.07-7.25,26.48-22.83,26.48S7.04,51.15,7.04,33.08,14.29,6.6,29.86,6.6s22.83,8.41,22.83,26.48Z"/>
  <path class="cls-1" d="M38.44,32.07c-.58,0-1.04,.46-1.04,1.04v6.88c0,4.16-3.38,7.54-7.54,7.54s-7.53-3.38-7.53-7.54v-6.88c0-.58-.46-1.04-1.04-1.04s-1.04,.46-1.04,1.04v6.88c0,5.3,4.31,9.61,9.61,9.61s9.61-4.31,9.61-9.61v-6.88c0-.58-.46-1.04-1.04-1.04Z"/>
  <path class="cls-1" d="M21.29,27.14c.58,0,1.04-.46,1.04-1.04v-4.27c0-.58-.46-1.04-1.04-1.04s-1.04,.46-1.04,1.04v4.27c0,.58,.46,1.04,1.04,1.04Z"/>
  <path class="cls-1" d="M38.45,20.79c-.58,0-1.04,.46-1.04,1.04v4.27c0,.58,.46,1.04,1.04,1.04s1.04-.46,1.04-1.04v-4.27c0-.58-.46-1.04-1.04-1.04Z"/>
</svg>